<svg width="31" height="33" viewBox="0 0 31 33" fill="none" xmlns="http://www.w3.org/2000/svg">
<path d="M15.5005 12.7318V17.8979M15.5005 23.0639H15.5135M13.2922 6.09348L2.35394 24.3554C2.12842 24.746 2.00909 25.1889 2.00782 25.6398C2.00656 26.0908 2.1234 26.5343 2.34674 26.9262C2.57007 27.318 2.89211 27.6445 3.2808 27.8733C3.66949 28.102 4.1113 28.2251 4.56226 28.23H26.4388C26.8898 28.2251 27.3316 28.102 27.7203 27.8733C28.109 27.6445 28.4311 27.318 28.6544 26.9262C28.8777 26.5343 28.9946 26.0908 28.9933 25.6398C28.9921 25.1889 28.8728 24.746 28.6472 24.3554L17.7089 6.09348C17.4787 5.71392 17.1545 5.4001 16.7677 5.1823C16.3809 4.96451 15.9445 4.8501 15.5005 4.8501C15.0567 4.8501 14.6203 4.96451 14.2334 5.1823C13.8466 5.4001 13.5225 5.71392 13.2922 6.09348Z" stroke="#FF6600" stroke-width="2.58283" stroke-linecap="round" stroke-linejoin="round"/>
</svg>
